<svg viewBox="-1163 1657.697 56.693 56.693" xml:space="preserve" xmlns="http://www.w3.org/2000/svg"><path d="m-1126.04 1689.533-16.577-9.778 2.088-3.54 16.577 9.778zM-1127.386 1694.635l-18.586-4.996 1.068-3.97 18.586 4.996zM-1127.824 1700.137l-19.165-1.767.377-4.093 19.165 1.767zM-1147.263 1701.293h19.247v4.111h-19.247z" fill="#ffffff" class="fill-000000"></path><path d="M-1121.458 1710.947s0 .96-.032.96v.016h-30.796s-.96 0-.96-.016h-.032v-20.03h3.288v16.805h25.244v-16.804h3.288v19.07zM-1130.667 1667.04l10.844 15.903-3.396 2.316-10.844-15.902zM-1118.313 1663.044l3.29 18.963-4.05.703-3.29-18.963z" fill="#ffffff" class="fill-000000"></path></svg>